<svg width="38" height="37" viewBox="0 0 38 37" fill="none" xmlns="http://www.w3.org/2000/svg">
<g filter="url(#filter0_d_251_384)">
<path d="M7.68883 4.65527C7.50117 4.65584 7.31401 4.67297 7.13002 4.70641C7.11474 4.70918 7.10006 4.71364 7.08486 4.71664C6.91199 4.75026 6.74288 4.79819 6.57968 4.85982C6.57222 4.86267 6.56452 4.86458 6.5571 4.86749C6.03608 5.06837 5.59168 5.4035 5.27909 5.83123C4.9665 6.25897 4.7995 6.76047 4.79883 7.27346V25.6007C4.79946 25.7707 4.81836 25.9403 4.85527 26.107C4.85833 26.1208 4.86326 26.1341 4.86656 26.1479C4.90368 26.3045 4.95658 26.4577 5.02461 26.6056C5.02775 26.6123 5.02987 26.6193 5.03308 26.626C5.25482 27.098 5.62473 27.5006 6.09687 27.7838C6.56902 28.067 7.12259 28.2183 7.68883 28.2189H30.8088C30.9965 28.2183 31.1836 28.2012 31.3676 28.1678C31.3829 28.165 31.3976 28.1605 31.4128 28.1575C32.0591 28.0324 32.6386 27.7104 33.0545 27.2451C33.4705 26.7799 33.6979 26.1995 33.6988 25.6007V7.27346C33.6982 7.10345 33.6793 6.93389 33.6424 6.76721C33.6393 6.75334 33.6344 6.74009 33.6311 6.7263C33.493 6.14077 33.1375 5.61582 32.6239 5.23896C32.1104 4.86209 31.4697 4.65609 30.8088 4.65527H7.68883ZM10.5788 7.27346H27.9188C27.9188 7.96784 28.2233 8.63379 28.7653 9.12479C29.3073 9.61579 30.0424 9.89164 30.8088 9.89164V22.9825C30.0424 22.9825 29.3073 23.2584 28.7653 23.7494C28.2233 24.2404 27.9188 24.9063 27.9188 25.6007H10.5788C10.5788 24.9063 10.2743 24.2404 9.73237 23.7494C9.19039 23.2584 8.4553 22.9825 7.68883 22.9825V9.89164C8.4553 9.89164 9.19039 9.61579 9.73237 9.12479C10.2743 8.63379 10.5788 7.96784 10.5788 7.27346ZM18.8368 8.58255V9.92999C18.3469 9.98628 15.6025 10.4529 15.6025 13.4507C15.6025 17.8244 20.6007 16.5298 20.6007 19.449C20.6007 20.91 19.56 20.9448 19.3476 20.9448C19.1626 20.9448 18.0009 21.0045 17.8998 19.0553H15.1622C15.2995 22.5924 18.19 22.8892 18.6308 22.9442V24.2916H20.0786V22.9442C20.5684 22.8879 23.3298 22.4774 23.3298 19.4311C23.3298 15.2342 18.3316 16.0359 18.3316 13.461C18.3316 11.9856 19.2302 11.9396 19.4238 11.9396C19.7634 11.9396 20.5413 12.2153 20.6063 13.8189H23.3298C23.2214 10.5763 20.7454 10.0443 20.2931 9.96579V8.58255H18.8368ZM10.5788 15.128V17.7462H13.4688V15.128H10.5788ZM25.0288 15.128V17.7462H27.9188V15.128H25.0288Z" fill="#FFF4DA"/>
</g>
<defs>
<filter id="filter0_d_251_384" x="-2.09131" y="0.727539" width="42.6802" height="39.418" filterUnits="userSpaceOnUse" color-interpolation-filters="sRGB">
<feFlood flood-opacity="0" result="BackgroundImageFix"/>
<feColorMatrix in="SourceAlpha" type="matrix" values="0 0 0 0 0 0 0 0 0 0 0 0 0 0 0 0 0 0 127 0" result="hardAlpha"/>
<feOffset dy="4"/>
<feGaussianBlur stdDeviation="2"/>
<feComposite in2="hardAlpha" operator="out"/>
<feColorMatrix type="matrix" values="0 0 0 0 0 0 0 0 0 0 0 0 0 0 0 0 0 0 0.25 0"/>
<feBlend mode="normal" in2="BackgroundImageFix" result="effect1_dropShadow_251_384"/>
<feBlend mode="normal" in="SourceGraphic" in2="effect1_dropShadow_251_384" result="shape"/>
</filter>
</defs>
</svg>
