<svg width="32" height="35" viewBox="0 0 32 35" fill="none" xmlns="http://www.w3.org/2000/svg">
<path d="M18.4254 26.4793L16.6591 29.7103C16.5726 29.8645 16.4515 29.9918 16.3074 30.0802C16.1632 30.1685 16.0008 30.2149 15.8357 30.2149C15.6705 30.2149 15.5081 30.1685 15.364 30.0802C15.2198 29.9918 15.0987 29.8645 15.0122 29.7103L13.246 26.4793C13.1629 26.3242 13.0443 26.1956 12.902 26.1061C12.7597 26.0167 12.5985 25.9695 12.4345 25.9692H5.33364C5.08043 25.9692 4.83759 25.8589 4.65854 25.6627C4.47949 25.4664 4.37891 25.2003 4.37891 24.9227V8.17928C4.37891 7.90174 4.47949 7.63557 4.65854 7.43932C4.83759 7.24306 5.08043 7.13281 5.33364 7.13281H26.3377C26.591 7.13281 26.8338 7.24306 27.0128 7.43932C27.1919 7.63557 27.2925 7.90174 27.2925 8.17928V24.9227C27.2925 25.2003 27.1919 25.4664 27.0128 25.6627C26.8338 25.8589 26.591 25.9692 26.3377 25.9692H19.2369C19.0729 25.9695 18.9117 26.0167 18.7694 26.1061C18.627 26.1956 18.5085 26.3242 18.4254 26.4793V26.4793Z" stroke="#FFF4DA" stroke-width="4" stroke-linecap="round" stroke-linejoin="round"/>
</svg>
