<svg width="26" height="22" viewBox="0 0 26 22" fill="none" xmlns="http://www.w3.org/2000/svg">
<path d="M0 0V18.3333C0 20.3439 1.76154 22 3.9 22H22.1C24.2385 22 26 20.3439 26 18.3333V4.88889H23.4V18.3333C23.4 19.0239 22.8345 19.5556 22.1 19.5556C21.3655 19.5556 20.8 19.0239 20.8 18.3333V0H0ZM2.6 2.44444H18.2V18.3333C18.2 18.808 18.5627 19.1375 18.7408 19.5556H3.9C3.16546 19.5556 2.6 19.0239 2.6 18.3333V2.44444ZM5.2 4.88889V8.55556H15.6V4.88889H5.2ZM5.2 11V13.4444H15.6V11H5.2ZM5.2 15.8889V18.3333H15.6V15.8889H5.2Z" fill="#FFF4DA"/>
</svg>
