<svg width="32" height="29" viewBox="0 0 32 29" fill="none" xmlns="http://www.w3.org/2000/svg">
<mask id="path-1-inside-1_251_379" fill="white">
<path d="M24.6478 0.345703C24.0532 0.345703 23.459 0.598561 23.0227 1.10422L13.3479 12.3363L8.64886 6.87804C8.2126 6.37238 7.61832 6.11953 7.02373 6.11953C6.42915 6.11953 5.83487 6.37238 5.39861 6.87804H5.39589L1.19064 11.7599C0.349864 12.7358 0.349864 14.3125 1.19064 15.2885L11.7228 27.5188C12.05 27.898 12.4673 28.1339 12.9057 28.2287H12.9084C13.1756 28.2862 13.4483 28.286 13.7169 28.2379C13.8881 28.2071 14.0571 28.1598 14.2188 28.0861C14.4966 27.9604 14.7542 27.771 14.973 27.5188L14.9784 27.5157L30.4538 9.54802C30.457 9.54431 30.4587 9.53961 30.4619 9.53588L30.4809 9.51464C31.3217 8.53868 31.3217 6.96199 30.4809 5.98603L30.4538 5.95569L26.2757 1.10422H26.2729C25.8367 0.598561 25.2424 0.345703 24.6478 0.345703ZM24.6478 3.69531L28.1395 7.75185L17.0214 20.6648L13.3506 24.9247L9.8616 20.8681L24.6478 3.69531ZM7.02373 9.46913L11.4216 14.5755L7.92447 18.632L3.5293 13.5257L7.02373 9.46913Z"/>
</mask>
<path d="M24.6478 0.345703C24.0532 0.345703 23.459 0.598561 23.0227 1.10422L13.3479 12.3363L8.64886 6.87804C8.2126 6.37238 7.61832 6.11953 7.02373 6.11953C6.42915 6.11953 5.83487 6.37238 5.39861 6.87804H5.39589L1.19064 11.7599C0.349864 12.7358 0.349864 14.3125 1.19064 15.2885L11.7228 27.5188C12.05 27.898 12.4673 28.1339 12.9057 28.2287H12.9084C13.1756 28.2862 13.4483 28.286 13.7169 28.2379C13.8881 28.2071 14.0571 28.1598 14.2188 28.0861C14.4966 27.9604 14.7542 27.771 14.973 27.5188L14.9784 27.5157L30.4538 9.54802C30.457 9.54431 30.4587 9.53961 30.4619 9.53588L30.4809 9.51464C31.3217 8.53868 31.3217 6.96199 30.4809 5.98603L30.4538 5.95569L26.2757 1.10422H26.2729C25.8367 0.598561 25.2424 0.345703 24.6478 0.345703ZM24.6478 3.69531L28.1395 7.75185L17.0214 20.6648L13.3506 24.9247L9.8616 20.8681L24.6478 3.69531ZM7.02373 9.46913L11.4216 14.5755L7.92447 18.632L3.5293 13.5257L7.02373 9.46913Z" fill="#EBE09B"/>
<path d="M23.0227 1.10422L18.4798 -2.81524L18.4766 -2.81155L23.0227 1.10422ZM13.3479 12.3363L8.8008 16.2509L13.3467 21.5313L17.894 16.2521L13.3479 12.3363ZM8.64886 6.87804L13.196 2.96345L13.1918 2.95859L8.64886 6.87804ZM5.39861 6.87804V12.878H8.14648L9.9415 10.7975L5.39861 6.87804ZM5.39589 6.87804V0.878042H2.64521L0.849959 2.96212L5.39589 6.87804ZM1.19064 11.7599L5.73641 15.676L5.73658 15.6758L1.19064 11.7599ZM1.19064 15.2885L5.73717 11.3732L5.73641 11.3723L1.19064 15.2885ZM11.7228 27.5188L7.17624 31.434L7.17987 31.4382L11.7228 27.5188ZM12.9057 28.2287L11.6374 34.0932L12.2643 34.2287H12.9057V28.2287ZM12.9084 28.2287L14.169 22.3627L13.5458 22.2287H12.9084V28.2287ZM13.7169 28.2379L14.7767 34.1435L14.7768 34.1435L13.7169 28.2379ZM14.2188 28.0861L11.7437 22.6204L11.7311 22.6262L14.2188 28.0861ZM14.973 27.5188L12.0455 22.2815L11.129 22.7938L10.4409 23.5869L14.973 27.5188ZM14.9784 27.5157L17.906 32.7531L18.8322 32.2353L19.5247 31.4313L14.9784 27.5157ZM30.4538 9.54802L25.91 5.62961L25.9076 5.63243L30.4538 9.54802ZM30.4619 9.53588L25.9893 5.53643L25.9418 5.58952L25.8956 5.64372L30.4619 9.53588ZM30.4809 9.51464L34.9535 13.5141L34.9905 13.4728L35.0267 13.4308L30.4809 9.51464ZM30.4809 5.98603L35.0267 2.06991L34.9905 2.02793L34.9536 1.98663L30.4809 5.98603ZM30.4538 5.95569L25.9074 9.87108L25.9438 9.91342L25.9811 9.95508L30.4538 5.95569ZM26.2757 1.10422L30.822 -2.81117L29.0268 -4.89578H26.2757V1.10422ZM26.2729 1.10422L21.7298 5.02334L23.5248 7.10422H26.2729V1.10422ZM24.6478 3.69531L29.1952 -0.218916L24.6485 -5.5011L20.101 -0.219605L24.6478 3.69531ZM28.1395 7.75185L32.6864 11.6667L36.0566 7.75241L32.6869 3.83763L28.1395 7.75185ZM17.0214 20.6648L21.5666 24.5816L21.5682 24.5797L17.0214 20.6648ZM13.3506 24.9247L8.8017 28.8371L13.3463 34.121L17.8958 28.8414L13.3506 24.9247ZM9.8616 20.8681L5.3148 16.9532L1.94578 20.866L5.3127 24.7806L9.8616 20.8681ZM7.02373 9.46913L11.57 5.5536L7.02418 0.275493L2.47784 5.55316L7.02373 9.46913ZM11.4216 14.5755L15.966 18.4932L19.3418 14.5774L15.9679 10.6599L11.4216 14.5755ZM7.92447 18.632L3.377 22.5461L7.92086 27.8252L12.4689 22.5497L7.92447 18.632ZM3.5293 13.5257L-1.01659 9.6097L-4.38856 13.5241L-1.01817 17.4398L3.5293 13.5257ZM24.6478 -5.6543C22.3251 -5.6543 20.0666 -4.6545 18.4798 -2.81524L27.5656 5.02367C26.8512 5.85162 25.7814 6.3457 24.6478 6.3457V-5.6543ZM18.4766 -2.81155L8.80182 8.42056L17.894 16.2521L27.5688 5.01999L18.4766 -2.81155ZM17.895 8.42174L13.1959 2.96346L4.10177 10.7926L8.8008 16.2509L17.895 8.42174ZM13.1918 2.95859C11.6049 1.11932 9.34645 0.119526 7.02373 0.119526V12.1195C5.89019 12.1195 4.82029 11.6254 4.10597 10.7975L13.1918 2.95859ZM7.02373 0.119526C4.70102 0.119526 2.44257 1.11932 0.855712 2.95859L9.9415 10.7975C9.22717 11.6254 8.15727 12.1195 7.02373 12.1195V0.119526ZM5.39861 0.878042H5.39589V12.878H5.39861V0.878042ZM0.849959 2.96212L-3.35529 7.84392L5.73658 15.6758L9.94183 10.794L0.849959 2.96212ZM-3.35512 7.84373C-6.13488 11.0704 -6.13488 15.9779 -3.35512 19.2046L5.73641 11.3723C6.3569 12.0926 6.56006 12.8905 6.56006 13.5242C6.56006 14.1579 6.3569 14.9557 5.73641 15.676L-3.35512 7.84373ZM-3.35589 19.2037L7.17624 31.434L16.2693 23.6035L5.73717 11.3732L-3.35589 19.2037ZM7.17987 31.4382C8.36994 32.8176 9.94255 33.7267 11.6374 34.0932L14.1739 22.3643C14.992 22.5412 15.73 22.9784 16.2657 23.5993L7.17987 31.4382ZM12.9057 34.2287H12.9084V22.2287H12.9057V34.2287ZM11.6477 34.0948C12.7467 34.331 13.8113 34.3168 14.7767 34.1435L12.657 22.3322C13.0853 22.2553 13.6044 22.2413 14.169 22.3627L11.6477 34.0948ZM14.7768 34.1435C15.3215 34.0457 15.9909 33.8722 16.7065 33.5461L11.7311 22.6262C12.1232 22.4475 12.4547 22.3685 12.657 22.3322L14.7768 34.1435ZM16.6939 33.5518C17.7704 33.0643 18.7269 32.3478 19.5051 31.4507L10.4409 23.5869C10.7815 23.1943 11.2227 22.8564 11.7437 22.6205L16.6939 33.5518ZM17.9005 32.7561L17.906 32.7531L12.0509 22.2784L12.0455 22.2815L17.9005 32.7561ZM19.5247 31.4313L35 13.4636L25.9076 5.63243L10.4322 23.6002L19.5247 31.4313ZM34.9976 13.4664C35.1132 13.3323 35.2105 13.2076 35.2902 13.099C35.3697 12.9908 35.4343 12.8953 35.4834 12.82C35.532 12.7454 35.5697 12.6837 35.5928 12.6456C35.6045 12.6262 35.614 12.6102 35.6199 12.6002C35.623 12.5951 35.6254 12.5909 35.627 12.5882C35.6286 12.5856 35.6298 12.5835 35.6299 12.5833C35.6313 12.581 35.6274 12.5876 35.6231 12.5949C35.6182 12.6031 35.6098 12.6173 35.5991 12.635C35.5784 12.6695 35.5428 12.7278 35.4967 12.7991C35.4501 12.871 35.3881 12.9634 35.3116 13.0686C35.2347 13.1741 35.1406 13.2962 35.0282 13.428L25.8956 5.64372C25.7825 5.77647 25.6875 5.89952 25.61 6.00609C25.5711 6.05949 25.5361 6.10937 25.5051 6.15479C25.4741 6.20018 25.4466 6.24179 25.4228 6.27859C25.399 6.31534 25.3783 6.34819 25.3611 6.37592C25.3439 6.40358 25.3295 6.42739 25.3184 6.44576C25.3075 6.46395 25.2987 6.4787 25.2936 6.48744C25.2909 6.49191 25.2888 6.49552 25.2876 6.49762C25.2865 6.49941 25.2854 6.50123 25.2858 6.50065C25.2858 6.5006 25.2861 6.50012 25.2865 6.49948C25.2868 6.49881 25.2875 6.49779 25.2882 6.49653C25.2897 6.49405 25.292 6.49012 25.2948 6.48527C25.3005 6.47577 25.3096 6.46037 25.3211 6.44142C25.3326 6.42234 25.3475 6.39785 25.3652 6.36949C25.3829 6.34107 25.4042 6.30756 25.4285 6.27015C25.4529 6.23271 25.481 6.19049 25.5127 6.1445C25.5443 6.09849 25.58 6.04808 25.6196 5.99418C25.6986 5.88658 25.7951 5.76282 25.91 5.62961L34.9976 13.4664ZM34.9345 13.5353L34.9535 13.5141L26.0083 5.51519L25.9893 5.53643L34.9345 13.5353ZM35.0267 13.4308C37.8064 10.2041 37.8064 5.2966 35.0267 2.06991L25.9351 9.90215C25.3146 9.18189 25.1115 8.38403 25.1115 7.75034C25.1115 7.11664 25.3146 6.31878 25.9351 5.59852L35.0267 13.4308ZM34.9536 1.98663L34.9265 1.95629L25.9811 9.95508L26.0082 9.98542L34.9536 1.98663ZM35.0002 2.0403L30.822 -2.81117L21.7293 5.01961L25.9074 9.87108L35.0002 2.0403ZM26.2757 -4.89578H26.2729V7.10422H26.2757V-4.89578ZM30.8161 -2.8149C29.2291 -4.65468 26.9703 -5.6543 24.6478 -5.6543V6.3457C23.5145 6.3457 22.4444 5.85181 21.7298 5.02334L30.8161 -2.8149ZM20.1004 7.60954L23.5921 11.6661L32.6869 3.83763L29.1952 -0.218916L20.1004 7.60954ZM23.5927 3.83699L12.4745 16.75L21.5682 24.5797L32.6864 11.6667L23.5927 3.83699ZM12.4761 16.7481L8.80536 21.0079L17.8958 28.8414L21.5666 24.5816L12.4761 16.7481ZM17.8995 21.0122L14.4105 16.9556L5.3127 24.7806L8.8017 28.8371L17.8995 21.0122ZM14.4084 24.783L29.1946 7.61022L20.101 -0.219605L5.3148 16.9532L14.4084 24.783ZM2.47746 13.3847L6.87534 18.491L15.9679 10.6599L11.57 5.5536L2.47746 13.3847ZM6.87722 10.6577L3.38008 14.7143L12.4689 22.5497L15.966 18.4932L6.87722 10.6577ZM12.4719 14.7179L8.07678 9.61153L-1.01817 17.4398L3.377 22.5461L12.4719 14.7179ZM8.0752 17.4416L11.5696 13.3851L2.47784 5.55316L-1.01659 9.6097L8.0752 17.4416Z" fill="#FFF4DA" mask="url(#path-1-inside-1_251_379)"/>
</svg>
